<svg width="75" height="18" viewBox="0 0 75 18" fill="none" xmlns="http://www.w3.org/2000/svg">
<path d="M74 16.3955L71.9034 15.5902H69.9339L67.9008 14.5165L65.8677 15.5902L63.4534 13.7113L61.6745 14.5165L57.8625 12.906L55.4482 13.7113L53.6693 12.906L52.0174 14.5715L49.7937 9.68492L47.5701 7.0324L45.3464 8.34281L42.9957 10.1584L41.3438 8.34281H40.3908L38.8024 9.68492L36.96 10.1351L35.054 8.31957H34.3551L32.7668 9.68492L31.1149 8.34281L29.6536 7.53754L26.7946 6.73227L25.8416 4.8533L23.745 5.03084L21.3307 3.24276H20.3142C19.9118 3.51119 19.0816 4.04803 18.98 4.04803C18.8783 4.04803 17.5822 4.58488 16.9469 4.8533L15.295 6.73227H13.3255L11.4195 3.21529L10.0853 4.02056L7.54396 6.73227L5.95562 3.36536L3.22368 2.56009C2.90602 2.29166 2.24527 4.04803 2.14361 4.04803C2.04196 4.04803 1.33884 1.84288 1 1.39551" stroke="#F04438" stroke-width="2" stroke-linecap="round" stroke-linejoin="round"/>
</svg>
