<svg width="75" height="18" viewBox="0 0 75 18" fill="none" xmlns="http://www.w3.org/2000/svg">
<path d="M1 16.3955L3.62689 14.5852L5.5625 15.361L7.63636 14.5852L9.71023 13.8093L12.3371 14.5852L14.2727 13.8093L16.0701 12.2576L18.4896 10.7059L20.9091 9.41275H23.3286L25.8864 8.63689L27.6837 9.41275H28.7206L30.4489 10.7059L32.4536 12.5647L34.5275 12.4031H35.2879L37.0161 10.7059L38.8134 9.41275L40.4034 8.63689L43.5142 7.86103L44.5511 6.05068L46.8324 5.27482L49.4593 4.49896H50.5653C51.0032 4.75758 51.9064 5.27482 52.017 5.27482C52.1277 5.27482 53.5379 5.79206 54.2292 6.05068L56.0265 7.86103H58.1695L60.2434 6.05068L61.6951 6.82654L64.4602 7.86103L66.1884 6.82654L69.161 6.05068C69.5066 5.79206 70.2256 5.27482 70.3362 5.27482C70.4468 5.27482 71.2118 4.41275 71.5805 3.98171H72.9631L74 1.39551" stroke="#17B26A" stroke-width="2" stroke-linecap="round" stroke-linejoin="round"/>
</svg>
