<svg width="94" height="38" viewBox="0 0 94 38" fill="none" xmlns="http://www.w3.org/2000/svg">
<g filter="url(#filter0_d_1581_24934)">
<rect x="2" y="1" width="90" height="34" rx="8" fill="white"/>
<rect x="2.5" y="1.5" width="89" height="33" rx="7.5" stroke="#D0D5DD"/>
<path d="M28 16.6663H16M24.6667 11.333V13.9997M19.3333 11.333V13.9997M19.2 24.6663H24.8C25.9201 24.6663 26.4802 24.6663 26.908 24.4484C27.2843 24.2566 27.5903 23.9506 27.782 23.5743C28 23.1465 28 22.5864 28 21.4663V15.8663C28 14.7462 28 14.1862 27.782 13.7584C27.5903 13.382 27.2843 13.0761 26.908 12.8843C26.4802 12.6663 25.9201 12.6663 24.8 12.6663H19.2C18.0799 12.6663 17.5198 12.6663 17.092 12.8843C16.7157 13.0761 16.4097 13.382 16.218 13.7584C16 14.1862 16 14.7462 16 15.8663V21.4663C16 22.5864 16 23.1465 16.218 23.5743C16.4097 23.9506 16.7157 24.2566 17.092 24.4484C17.5198 24.6663 18.0799 24.6663 19.2 24.6663Z" stroke="#344054" stroke-width="1.66667" stroke-linecap="round" stroke-linejoin="round"/>
<path d="M38.5568 14.3643V12.8182H46.6804V14.3643H43.5334V23H41.7038V14.3643H38.5568ZM50.3904 23.1491C49.6447 23.1491 48.9984 22.9851 48.4515 22.657C47.9047 22.3288 47.4804 21.8698 47.1788 21.2798C46.8805 20.6899 46.7314 20.0005 46.7314 19.2116C46.7314 18.4228 46.8805 17.7318 47.1788 17.1385C47.4804 16.5452 47.9047 16.0845 48.4515 15.7564C48.9984 15.4283 49.6447 15.2642 50.3904 15.2642C51.1362 15.2642 51.7825 15.4283 52.3294 15.7564C52.8762 16.0845 53.2988 16.5452 53.5971 17.1385C53.8987 17.7318 54.0495 18.4228 54.0495 19.2116C54.0495 20.0005 53.8987 20.6899 53.5971 21.2798C53.2988 21.8698 52.8762 22.3288 52.3294 22.657C51.7825 22.9851 51.1362 23.1491 50.3904 23.1491ZM50.4004 21.7074C50.8047 21.7074 51.1428 21.5964 51.4146 21.3743C51.6864 21.1489 51.8886 20.8473 52.0211 20.4695C52.157 20.0916 52.225 19.6707 52.225 19.2067C52.225 18.7393 52.157 18.3168 52.0211 17.9389C51.8886 17.5578 51.6864 17.2545 51.4146 17.0291C51.1428 16.8037 50.8047 16.6911 50.4004 16.6911C49.9861 16.6911 49.6414 16.8037 49.3663 17.0291C49.0945 17.2545 48.8907 17.5578 48.7548 17.9389C48.6222 18.3168 48.5559 18.7393 48.5559 19.2067C48.5559 19.6707 48.6222 20.0916 48.7548 20.4695C48.8907 20.8473 49.0945 21.1489 49.3663 21.3743C49.6414 21.5964 49.9861 21.7074 50.4004 21.7074ZM58.4109 23.1342C57.811 23.1342 57.274 22.9801 56.8001 22.6719C56.3261 22.3636 55.9516 21.9162 55.6765 21.3295C55.4014 20.7429 55.2638 20.0303 55.2638 19.1918C55.2638 18.3433 55.4031 17.6274 55.6815 17.044C55.9632 16.4574 56.3427 16.0149 56.82 15.7166C57.2972 15.415 57.8292 15.2642 58.4158 15.2642C58.8633 15.2642 59.2312 15.3404 59.5195 15.4929C59.8079 15.642 60.0366 15.8227 60.2056 16.0348C60.3746 16.2436 60.5056 16.4408 60.5984 16.6264H60.6729V12.8182H62.4776V23H60.7077V21.7969H60.5984C60.5056 21.9825 60.3713 22.1797 60.1957 22.3885C60.02 22.594 59.788 22.7696 59.4996 22.9155C59.2113 23.0613 58.8484 23.1342 58.4109 23.1342ZM58.913 21.6577C59.2942 21.6577 59.619 21.5549 59.8874 21.3494C60.1559 21.1406 60.3597 20.8506 60.4989 20.4794C60.6381 20.1082 60.7077 19.6757 60.7077 19.1818C60.7077 18.688 60.6381 18.2588 60.4989 17.8942C60.363 17.5296 60.1609 17.2462 59.8924 17.044C59.6272 16.8419 59.3008 16.7408 58.913 16.7408C58.512 16.7408 58.1772 16.8452 57.9087 17.054C57.6403 17.2628 57.4381 17.5511 57.3022 17.919C57.1663 18.2869 57.0984 18.7079 57.0984 19.1818C57.0984 19.6591 57.1663 20.085 57.3022 20.4595C57.4414 20.8307 57.6452 21.1241 57.9137 21.3395C58.1855 21.5516 58.5186 21.6577 58.913 21.6577ZM66.5929 23.1541C66.109 23.1541 65.6731 23.0679 65.2853 22.8956C64.9009 22.7199 64.5959 22.4614 64.3706 22.12C64.1485 21.7786 64.0375 21.3577 64.0375 20.8572C64.0375 20.4264 64.117 20.0701 64.2761 19.7884C64.4352 19.5066 64.6523 19.2812 64.9274 19.1122C65.2025 18.9432 65.5124 18.8156 65.8571 18.7294C66.2051 18.6399 66.5647 18.5753 66.9359 18.5355C67.3833 18.4891 67.7463 18.4477 68.0247 18.4112C68.3031 18.3714 68.5053 18.3118 68.6312 18.2322C68.7605 18.1494 68.8251 18.0218 68.8251 17.8494V17.8196C68.8251 17.4451 68.7141 17.1551 68.492 16.9496C68.2699 16.7441 67.9501 16.6413 67.5325 16.6413C67.0917 16.6413 66.742 16.7375 66.4835 16.9297C66.2283 17.1219 66.0559 17.349 65.9664 17.6108L64.286 17.3722C64.4186 16.9081 64.6374 16.5204 64.9423 16.2088C65.2472 15.8939 65.6201 15.6586 66.0609 15.5028C66.5017 15.3438 66.9889 15.2642 67.5225 15.2642C67.8904 15.2642 68.2567 15.3073 68.6213 15.3935C68.9859 15.4796 69.319 15.6222 69.6206 15.821C69.9222 16.0166 70.1641 16.2834 70.3464 16.6214C70.532 16.9595 70.6248 17.3821 70.6248 17.8892V23H68.8947V21.951H68.835C68.7257 22.1631 68.5716 22.362 68.3727 22.5476C68.1771 22.7299 67.9302 22.8774 67.6319 22.9901C67.3369 23.0994 66.9906 23.1541 66.5929 23.1541ZM67.0602 21.8317C67.4215 21.8317 67.7347 21.7604 67.9998 21.6179C68.265 21.4721 68.4688 21.2798 68.6113 21.0412C68.7572 20.8026 68.8301 20.5424 68.8301 20.2607V19.3608C68.7737 19.4072 68.6776 19.4503 68.5417 19.4901C68.4092 19.5298 68.26 19.5646 68.0943 19.5945C67.9286 19.6243 67.7645 19.6508 67.6021 19.674C67.4397 19.6972 67.2988 19.7171 67.1795 19.7337C66.911 19.7701 66.6708 19.8298 66.4586 19.9126C66.2465 19.9955 66.0791 20.1115 65.9565 20.2607C65.8339 20.4065 65.7725 20.5954 65.7725 20.8274C65.7725 21.1589 65.8935 21.4091 66.1355 21.5781C66.3774 21.7472 66.6857 21.8317 67.0602 21.8317ZM73.2797 25.8636C73.0344 25.8636 72.8074 25.8438 72.5985 25.804C72.3931 25.7675 72.229 25.7244 72.1064 25.6747L72.524 24.2727C72.7858 24.349 73.0195 24.3854 73.225 24.3821C73.4305 24.3788 73.6111 24.3142 73.7669 24.1882C73.926 24.0656 74.0602 23.8601 74.1696 23.5717L74.3237 23.1591L71.5545 15.3636H73.4636L75.2235 21.1307H75.3031L77.068 15.3636H78.9821L75.9245 23.9247C75.782 24.3291 75.5931 24.6754 75.3578 24.9638C75.1225 25.2554 74.8341 25.4775 74.4927 25.63C74.1547 25.7857 73.7503 25.8636 73.2797 25.8636Z" fill="#344054"/>
</g>
<defs>
<filter id="filter0_d_1581_24934" x="0" y="0" width="94" height="38" filterUnits="userSpaceOnUse" color-interpolation-filters="sRGB">
<feFlood flood-opacity="0" result="BackgroundImageFix"/>
<feColorMatrix in="SourceAlpha" type="matrix" values="0 0 0 0 0 0 0 0 0 0 0 0 0 0 0 0 0 0 127 0" result="hardAlpha"/>
<feOffset dy="1"/>
<feGaussianBlur stdDeviation="1"/>
<feColorMatrix type="matrix" values="0 0 0 0 0.0627451 0 0 0 0 0.0941176 0 0 0 0 0.156863 0 0 0 0.05 0"/>
<feBlend mode="normal" in2="BackgroundImageFix" result="effect1_dropShadow_1581_24934"/>
<feBlend mode="normal" in="SourceGraphic" in2="effect1_dropShadow_1581_24934" result="shape"/>
</filter>
</defs>
</svg>
